<svg width="248" height="37" viewBox="0 0 248 37" version="1.1" xmlns="http://www.w3.org/2000/svg" xmlns:xlink="http://www.w3.org/1999/xlink">
<g id="Canvas" fill="none">
<g id="Scheduler.">
<path d="M 15.808 41.624C 25.116 41.624 29.692 36.84 29.692 30.496C 29.692 17.548 9.776 21.24 9.776 15.78C 9.776 13.7 11.544 12.348 14.664 12.348C 18.2 12.348 21.944 13.544 24.752 16.144L 28.86 10.632C 25.428 7.46 20.852 5.796 15.34 5.796C 7.176 5.796 2.184 10.58 2.184 16.352C 2.184 29.404 22.152 25.192 22.152 31.224C 22.152 33.252 20.228 35.072 16.12 35.072C 11.336 35.072 7.54 32.888 5.096 30.34L 1.04 36.112C 4.316 39.388 9.1 41.624 15.808 41.624ZM 46.1557 41.624C 51.3037 41.624 54.4237 39.336 56.0877 37.048L 51.7717 32.992C 50.5757 34.708 48.7557 35.748 46.4677 35.748C 42.4637 35.748 39.6557 32.784 39.6557 28.416C 39.6557 24.048 42.4637 21.136 46.4677 21.136C 48.7557 21.136 50.5757 22.072 51.7717 23.84L 56.0877 19.784C 54.4237 17.496 51.3037 15.26 46.1557 15.26C 38.4597 15.26 32.8437 20.72 32.8437 28.416C 32.8437 36.164 38.4597 41.624 46.1557 41.624ZM 84.0129 41L 84.0129 23.164C 84.0129 18.276 81.3609 15.26 75.8489 15.26C 71.7409 15.26 68.6729 17.236 67.0609 19.108L 67.0609 6.316L 60.4049 6.316L 60.4049 41L 67.0609 41L 67.0609 24.048C 68.1529 22.592 70.1809 21.136 72.7809 21.136C 75.5889 21.136 77.4089 22.228 77.4089 25.712L 77.4089 41L 84.0129 41ZM 102.373 41.624C 106.273 41.624 110.225 40.428 112.721 38.14L 109.757 33.772C 108.145 35.332 105.233 36.216 103.101 36.216C 98.837 36.216 96.341 33.668 95.873 30.6L 114.541 30.6L 114.541 29.04C 114.541 20.876 109.497 15.26 101.957 15.26C 94.365 15.26 88.957 21.136 88.957 28.416C 88.957 36.476 94.729 41.624 102.373 41.624ZM 108.197 26.024L 95.821 26.024C 96.081 23.528 97.849 20.668 101.957 20.668C 106.325 20.668 107.989 23.632 108.197 26.024ZM 143.231 41L 143.231 6.316L 136.575 6.316L 136.575 19.108C 134.599 16.508 131.791 15.26 128.827 15.26C 122.431 15.26 117.699 20.252 117.699 28.416C 117.699 36.84 122.535 41.624 128.827 41.624C 131.895 41.624 134.599 40.272 136.575 37.776L 136.575 41L 143.231 41ZM 130.907 35.748C 127.111 35.748 124.511 32.784 124.511 28.416C 124.511 24.1 127.111 21.136 130.907 21.136C 133.091 21.136 135.483 22.332 136.575 23.996L 136.575 32.888C 135.483 34.552 133.091 35.748 130.907 35.748ZM 173.336 41L 173.336 15.884L 166.732 15.884L 166.732 32.888C 165.588 34.344 163.56 35.748 161.012 35.748C 158.204 35.748 156.384 34.604 156.384 31.12L 156.384 15.884L 149.78 15.884L 149.78 33.72C 149.78 38.608 152.38 41.624 157.892 41.624C 162 41.624 165.016 39.7 166.732 37.828L 166.732 41L 173.336 41ZM 186.497 41L 186.497 6.316L 179.893 6.316L 179.893 41L 186.497 41ZM 204.85 41.624C 208.75 41.624 212.702 40.428 215.198 38.14L 212.234 33.772C 210.622 35.332 207.71 36.216 205.578 36.216C 201.314 36.216 198.818 33.668 198.35 30.6L 217.018 30.6L 217.018 29.04C 217.018 20.876 211.974 15.26 204.434 15.26C 196.842 15.26 191.434 21.136 191.434 28.416C 191.434 36.476 197.206 41.624 204.85 41.624ZM 210.674 26.024L 198.298 26.024C 198.558 23.528 200.326 20.668 204.434 20.668C 208.802 20.668 210.466 23.632 210.674 26.024ZM 228.392 41L 228.392 24.412C 229.484 22.8 232.396 21.552 234.58 21.552C 235.36 21.552 235.932 21.604 236.4 21.708L 236.4 15.26C 233.28 15.26 230.212 17.08 228.392 19.264L 228.392 15.884L 221.788 15.884L 221.788 41L 228.392 41Z" transform="translate(-1 -5)" fill="white"/>
<path d="M 243.906 41.572C 246.194 41.572 248.118 39.648 248.118 37.36C 248.118 35.072 246.194 33.148 243.906 33.148C 241.618 33.148 239.694 35.072 239.694 37.36C 239.694 39.648 241.618 41.572 243.906 41.572Z" transform="translate(-1 -5)" fill="#90BC47"/>
</g>
</g>
</svg>

