<?xml version="1.0" encoding="UTF-8" standalone="no"?>
<svg xmlns="http://www.w3.org/2000/svg" height="37" width="248" version="1.1" xmlns:xlink="http://www.w3.org/1999/xlink" viewBox="0 0 248 37">
 <g id="Canvas" fill="none">
  <g id="Scheduler.">
   <path fill="#fff" d="m15.808 41.624c9.308 0 13.884-4.784 13.884-11.128 0-12.948-19.916-9.256-19.916-14.716 0-2.08 1.768-3.432 4.888-3.432 3.536 0 7.28 1.196 10.088 3.796l4.108-5.512c-3.432-3.172-8.008-4.836-13.52-4.836-8.164 0-13.156 4.784-13.156 10.556 0 13.052 19.968 8.84 19.968 14.872 0 2.028-1.924 3.848-6.032 3.848-4.784 0-8.58-2.184-11.024-4.732l-4.056 5.772c3.276 3.276 8.06 5.512 14.768 5.512zm30.348 0c5.148 0 8.268-2.288 9.932-4.576l-4.316-4.056c-1.196 1.716-3.016 2.756-5.304 2.756-4.004 0-6.812-2.964-6.812-7.332s2.808-7.28 6.812-7.28c2.288 0 4.108 0.936 5.304 2.704l4.316-4.056c-1.664-2.288-4.784-4.524-9.932-4.524-7.696 0-13.312 5.46-13.312 13.156 0 7.748 5.616 13.208 13.312 13.208zm37.857-0.624v-17.836c0-4.888-2.652-7.904-8.164-7.904-4.108 0-7.176 1.976-8.788 3.848v-12.792h-6.656v34.684h6.656v-16.952c1.092-1.456 3.12-2.912 5.72-2.912 2.808 0 4.628 1.092 4.628 4.576v15.288h6.604zm18.357 0.624c3.9 0 7.85-1.196 10.35-3.484l-2.96-4.368c-1.62 1.56-4.53 2.444-6.66 2.444-4.263 0-6.759-2.548-7.227-5.616h18.667v-1.56c0-8.164-5.04-13.78-12.58-13.78-7.595 0-13.003 5.876-13.003 13.156 0 8.06 5.772 13.208 13.413 13.208zm5.83-15.6h-12.379c0.26-2.496 2.028-5.356 6.139-5.356 4.36 0 6.03 2.964 6.24 5.356zm35.03 14.976v-34.684h-6.65v12.792c-1.98-2.6-4.79-3.848-7.75-3.848-6.4 0-11.13 4.992-11.13 13.156 0 8.424 4.84 13.208 11.13 13.208 3.07 0 5.77-1.352 7.75-3.848v3.224h6.65zm-12.32-5.252c-3.8 0-6.4-2.964-6.4-7.332 0-4.316 2.6-7.28 6.4-7.28 2.18 0 4.57 1.196 5.67 2.86v8.892c-1.1 1.664-3.49 2.86-5.67 2.86zm42.43 5.252v-25.116h-6.61v17.004c-1.14 1.456-3.17 2.86-5.72 2.86-2.81 0-4.63-1.144-4.63-4.628v-15.236h-6.6v17.836c0 4.888 2.6 7.904 8.11 7.904 4.11 0 7.13-1.924 8.84-3.796v3.172h6.61zm13.16 0v-34.684h-6.61v34.684h6.61zm18.35 0.624c3.9 0 7.85-1.196 10.35-3.484l-2.97-4.368c-1.61 1.56-4.52 2.444-6.65 2.444-4.27 0-6.76-2.548-7.23-5.616h18.67v-1.56c0-8.164-5.05-13.78-12.59-13.78-7.59 0-13 5.876-13 13.156 0 8.06 5.78 13.208 13.42 13.208zm5.82-15.6h-12.37c0.26-2.496 2.03-5.356 6.13-5.356 4.37 0 6.04 2.964 6.24 5.356zm17.72 14.976v-16.588c1.09-1.612 4.01-2.86 6.19-2.86 0.78 0 1.35 0.052 1.82 0.156v-6.448c-3.12 0-6.19 1.82-8.01 4.004v-3.38h-6.6v25.116h6.6z" transform="translate(-1 -5)"/>
   <path fill="#90BC47" d="m243.91 41.572c2.28 0 4.21-1.924 4.21-4.212s-1.93-4.212-4.21-4.212c-2.29 0-4.22 1.924-4.22 4.212s1.93 4.212 4.22 4.212z" transform="translate(-1 -5)"/>
  </g>
 </g>
</svg>
